<svg width="53" height="51" viewBox="0 0 53 51" fill="none" xmlns="http://www.w3.org/2000/svg">
<path fill-rule="evenodd" clip-rule="evenodd" d="M26.6097 0.0478516C12.3913 0.0478516 0.875 11.5183 0.875 25.6802C0.875 37.0225 8.24156 46.6026 18.4711 49.9989C19.7578 50.2232 20.2404 49.4542 20.2404 48.7813C20.2404 48.1726 20.2082 46.154 20.2082 44.0073C13.7424 45.1928 12.0696 42.4373 11.5549 40.9955C11.2654 40.2586 10.0108 37.9837 8.91709 37.375C8.01638 36.8943 6.72964 35.7089 8.88492 35.6768C10.9115 35.6448 12.3591 37.5352 12.8416 38.3041C15.1578 42.181 18.8571 41.0916 20.3369 40.4188C20.562 38.7527 21.2376 37.6313 21.9775 36.9905C16.2515 36.3497 10.2682 34.1389 10.2682 24.3345C10.2682 21.547 11.2654 19.2401 12.906 17.4458C12.6486 16.805 11.7479 14.1777 13.1633 10.6532C13.1633 10.6532 15.3186 9.98039 20.2404 13.2806C22.2991 12.7038 24.4866 12.4155 26.674 12.4155C28.8615 12.4155 31.0489 12.7038 33.1077 13.2806C38.0295 9.94835 40.1848 10.6532 40.1848 10.6532C41.6002 14.1777 40.6994 16.805 40.4421 17.4458C42.0827 19.2401 43.0799 21.5149 43.0799 24.3345C43.0799 34.1709 37.0644 36.3497 31.3385 36.9905C32.2713 37.7915 33.0755 39.3294 33.0755 41.7325C33.0755 45.1608 33.0434 47.9163 33.0434 48.7813C33.0434 49.4542 33.5259 50.2552 34.8126 49.9989C44.9778 46.6026 52.3444 36.9905 52.3444 25.6802C52.3444 11.5183 40.8281 0.0478516 26.6097 0.0478516Z" fill="white"/>
</svg>
